<svg width="142" height="29" viewBox="0 0 142 29" fill="none" xmlns="http://www.w3.org/2000/svg">
<path d="M49.3849 12.3622H46.7287C46.6529 11.9266 46.5133 11.5407 46.3097 11.2045C46.1061 10.8636 45.8527 10.5748 45.5497 10.3381C45.2467 10.1013 44.901 9.92377 44.5128 9.8054C44.1293 9.68229 43.715 9.62074 43.2699 9.62074C42.4792 9.62074 41.7784 9.8196 41.1676 10.2173C40.5568 10.6103 40.0786 11.188 39.733 11.9503C39.3873 12.7079 39.2145 13.6335 39.2145 14.7273C39.2145 15.84 39.3873 16.7775 39.733 17.5398C40.0833 18.2973 40.5616 18.8703 41.1676 19.2585C41.7784 19.642 42.4768 19.8338 43.2628 19.8338C43.6984 19.8338 44.1056 19.777 44.4844 19.6634C44.8679 19.545 45.2112 19.3722 45.5142 19.1449C45.822 18.9176 46.08 18.6383 46.2884 18.3068C46.5014 17.9754 46.6482 17.5966 46.7287 17.1705L49.3849 17.1847C49.2855 17.8759 49.0701 18.5246 48.7386 19.1307C48.4119 19.7367 47.9834 20.2718 47.4531 20.7358C46.9228 21.1951 46.3026 21.5549 45.5923 21.8153C44.8821 22.071 44.0938 22.1989 43.2273 22.1989C41.9489 22.1989 40.8078 21.9029 39.804 21.3111C38.8002 20.7192 38.0095 19.8646 37.4318 18.7472C36.8542 17.6297 36.5653 16.2898 36.5653 14.7273C36.5653 13.16 36.8565 11.8201 37.4389 10.7074C38.0213 9.58996 38.8144 8.73532 39.8182 8.14347C40.822 7.55161 41.9583 7.25568 43.2273 7.25568C44.0369 7.25568 44.7898 7.36932 45.4858 7.59659C46.1818 7.82386 46.8021 8.15767 47.3466 8.59801C47.8911 9.03362 48.3385 9.56866 48.6889 10.2031C49.044 10.8329 49.276 11.5526 49.3849 12.3622ZM51.6843 22V11.0909H54.1772V12.9091H54.2908C54.4897 12.2794 54.8306 11.794 55.3136 11.4531C55.8013 11.1075 56.3576 10.9347 56.9826 10.9347C57.1246 10.9347 57.2833 10.9418 57.4585 10.956C57.6384 10.9654 57.7875 10.982 57.9059 11.0057V13.3707C57.797 13.3329 57.6242 13.2997 57.3874 13.2713C57.1554 13.2382 56.9305 13.2216 56.7127 13.2216C56.244 13.2216 55.8226 13.3234 55.4485 13.527C55.0792 13.7259 54.788 14.0028 54.5749 14.358C54.3619 14.7131 54.2553 15.1226 54.2553 15.5866V22H51.6843ZM63.9943 22.2131C62.9006 22.2131 61.956 21.9858 61.1605 21.5312C60.3698 21.072 59.7614 20.4233 59.3352 19.5852C58.9091 18.7424 58.696 17.7505 58.696 16.6094C58.696 15.4872 58.9091 14.5024 59.3352 13.6548C59.7661 12.8026 60.3674 12.1397 61.1392 11.6662C61.911 11.188 62.8177 10.9489 63.8594 10.9489C64.5317 10.9489 65.1662 11.0578 65.7628 11.2756C66.3641 11.4886 66.8944 11.8201 67.3537 12.2699C67.8177 12.7197 68.1823 13.2926 68.4474 13.9886C68.7126 14.6799 68.8452 15.5038 68.8452 16.4602V17.2486H59.9034V15.5156H66.3807C66.3759 15.0232 66.2694 14.5852 66.0611 14.2017C65.8527 13.8134 65.5616 13.508 65.1875 13.2855C64.8182 13.063 64.3873 12.9517 63.8949 12.9517C63.3693 12.9517 62.9077 13.0795 62.5099 13.3352C62.1122 13.5862 61.8021 13.9176 61.5795 14.3295C61.3617 14.7367 61.2505 15.1842 61.2457 15.6719V17.1847C61.2457 17.8191 61.3617 18.3636 61.5938 18.8182C61.8258 19.268 62.1501 19.6136 62.5668 19.8551C62.9834 20.0919 63.4711 20.2102 64.0298 20.2102C64.4039 20.2102 64.7424 20.1581 65.0455 20.054C65.3485 19.9451 65.6113 19.7865 65.8338 19.5781C66.0563 19.3698 66.2244 19.1117 66.3381 18.804L68.7386 19.0739C68.5871 19.7083 68.2983 20.2623 67.8722 20.7358C67.4508 21.2045 66.911 21.5691 66.2528 21.8295C65.5947 22.0852 64.8419 22.2131 63.9943 22.2131ZM75.0685 22.1918C74.2115 22.1918 73.4445 21.9716 72.7674 21.5312C72.0903 21.0909 71.5553 20.4517 71.1623 19.6136C70.7693 18.7756 70.5728 17.7576 70.5728 16.5597C70.5728 15.3475 70.7717 14.3248 71.1694 13.4915C71.5719 12.6534 72.114 12.0213 72.7958 11.5952C73.4776 11.1643 74.2376 10.9489 75.0756 10.9489C75.7148 10.9489 76.2404 11.0578 76.6523 11.2756C77.0643 11.4886 77.391 11.7467 77.6325 12.0497C77.8739 12.348 78.061 12.6297 78.1935 12.8949H78.3001V7.45455H80.8782V22H78.3498V20.2812H78.1935C78.061 20.5464 77.8692 20.8281 77.6183 21.1264C77.3673 21.42 77.0359 21.6709 76.6239 21.8793C76.212 22.0876 75.6935 22.1918 75.0685 22.1918ZM75.7859 20.0824C76.3304 20.0824 76.7944 19.9356 77.1779 19.642C77.5614 19.3437 77.8526 18.9295 78.0515 18.3991C78.2504 17.8688 78.3498 17.2509 78.3498 16.5455C78.3498 15.84 78.2504 15.2268 78.0515 14.706C77.8574 14.1851 77.5685 13.7803 77.185 13.4915C76.8062 13.2027 76.3398 13.0582 75.7859 13.0582C75.213 13.0582 74.7347 13.2074 74.3512 13.5057C73.9677 13.804 73.6789 14.2159 73.4847 14.7415C73.2906 15.267 73.1935 15.8684 73.1935 16.5455C73.1935 17.2273 73.2906 17.8357 73.4847 18.3707C73.6836 18.901 73.9748 19.3201 74.3583 19.6278C74.7466 19.9309 75.2224 20.0824 75.7859 20.0824ZM83.6179 22V11.0909H86.1889V22H83.6179ZM84.9105 9.54261C84.5033 9.54261 84.1529 9.40767 83.8594 9.13778C83.5658 8.86316 83.419 8.53409 83.419 8.15057C83.419 7.76231 83.5658 7.43324 83.8594 7.16335C84.1529 6.88873 84.5033 6.75142 84.9105 6.75142C85.3224 6.75142 85.6728 6.88873 85.9616 7.16335C86.2552 7.43324 86.402 7.76231 86.402 8.15057C86.402 8.53409 86.2552 8.86316 85.9616 9.13778C85.6728 9.40767 85.3224 9.54261 84.9105 9.54261ZM94.2802 11.0909V13.0795H88.0089V11.0909H94.2802ZM89.5572 8.47727H92.1282V18.7188C92.1282 19.0644 92.1803 19.3295 92.2844 19.5142C92.3933 19.6941 92.5354 19.8172 92.7106 19.8835C92.8858 19.9498 93.0799 19.983 93.293 19.983C93.454 19.983 93.6007 19.9711 93.7333 19.9474C93.8706 19.9238 93.9748 19.9025 94.0458 19.8835L94.479 21.8935C94.3417 21.9408 94.1452 21.9929 93.8896 22.0497C93.6386 22.1065 93.3308 22.1397 92.9663 22.1491C92.3223 22.1681 91.7423 22.071 91.2262 21.858C90.7101 21.6402 90.3005 21.304 89.9975 20.8494C89.6992 20.3949 89.5524 19.8267 89.5572 19.1449V8.47727ZM104.896 13.9744L102.553 14.2301C102.486 13.9934 102.37 13.7708 102.205 13.5625C102.044 13.3542 101.826 13.1861 101.551 13.0582C101.277 12.9304 100.94 12.8665 100.543 12.8665C100.008 12.8665 99.5578 12.9825 99.1932 13.2145C98.8333 13.4465 98.6558 13.7472 98.6605 14.1165C98.6558 14.4337 98.7718 14.6918 99.0085 14.8906C99.25 15.0895 99.6477 15.2528 100.202 15.3807L102.062 15.7784C103.095 16.0009 103.862 16.3537 104.364 16.8366C104.87 17.3196 105.126 17.9517 105.131 18.733C105.126 19.4195 104.925 20.0256 104.527 20.5511C104.134 21.072 103.587 21.4792 102.886 21.7727C102.186 22.0663 101.381 22.2131 100.472 22.2131C99.1364 22.2131 98.0616 21.9337 97.2472 21.375C96.4328 20.8116 95.9474 20.0279 95.7912 19.0241L98.2983 18.7827C98.4119 19.2751 98.6534 19.6468 99.0227 19.8977C99.392 20.1487 99.8726 20.2741 100.464 20.2741C101.075 20.2741 101.565 20.1487 101.935 19.8977C102.309 19.6468 102.496 19.3366 102.496 18.9673C102.496 18.6548 102.375 18.3968 102.134 18.1932C101.897 17.9896 101.527 17.8333 101.026 17.7244L99.1648 17.3338C98.1184 17.116 97.3442 16.7491 96.8423 16.233C96.3404 15.7121 96.0919 15.054 96.0966 14.2585C96.0919 13.5862 96.2741 13.0038 96.6435 12.5114C97.0175 12.0142 97.536 11.6307 98.1989 11.3608C98.8665 11.0862 99.6359 10.9489 100.507 10.9489C101.786 10.9489 102.792 11.2211 103.526 11.7656C104.264 12.3101 104.721 13.0464 104.896 13.9744Z" fill="white"/>
<path d="M16.2965 15.7421L12.4465 11.9463C12.2498 11.7519 12.1364 11.4903 12.1299 11.2157C12.1233 10.9411 12.2241 10.6746 12.4114 10.4713C12.5986 10.2679 12.858 10.1434 13.1359 10.1234C13.4137 10.1034 13.6887 10.1895 13.9039 10.3639L13.9814 10.433L19.6819 16.0539C19.8727 16.2419 19.9857 16.4932 19.9987 16.7589C20.0118 17.0245 19.9241 17.2854 19.7526 17.4908L19.6819 17.5672L13.9814 23.1875C13.7842 23.3815 13.5189 23.4932 13.2404 23.4997C12.9619 23.5062 12.6916 23.4068 12.4853 23.2221C12.2791 23.0375 12.1528 22.7818 12.1325 22.5078C12.1122 22.2339 12.1996 21.9628 12.3765 21.7506L12.4465 21.6742L16.294 17.8821L11.4729 17.8821C9.40034 17.8821 7.46979 17.4272 5.79413 16.5565L5.54482 16.4232C3.83961 15.484 2.43232 14.0965 1.47969 12.4153C0.508529 10.7069 -6.14901e-07 8.71613 -4.27281e-07 6.57C-4.02472e-07 6.28622 0.114339 6.01406 0.317869 5.8134C0.521396 5.61273 0.797441 5.5 1.08527 5.5C1.37311 5.5 1.64915 5.61273 1.85268 5.8134C2.05621 6.01406 2.17055 6.28622 2.17055 6.57C2.17055 8.35538 2.58667 9.98607 3.37303 11.3685C4.13024 12.7062 5.24976 13.81 6.60653 14.5565C7.93057 15.2884 9.4791 15.695 11.1727 15.7378L11.4729 15.7421L16.2965 15.7421Z" fill="white"/>
</svg>
