<svg width="18" height="18" viewBox="0 0 18 18" fill="none" xmlns="http://www.w3.org/2000/svg">
<path id="Vector" fill-rule="evenodd" clip-rule="evenodd" d="M0 7.10605C0 4.86605 1.19209e-07 3.74605 0.436 2.89005C0.819488 2.13744 1.43139 1.52554 2.184 1.14205C3.04 0.706055 4.16 0.706055 6.4 0.706055H11.6C13.84 0.706055 14.96 0.706055 15.816 1.14205C16.5686 1.52554 17.1805 2.13744 17.564 2.89005C18 3.74605 18 4.86605 18 7.10605V8.30606C18 10.5461 18 11.6661 17.564 12.5221C17.1805 13.2747 16.5686 13.8866 15.816 14.2701C14.96 14.7061 13.84 14.7061 11.6 14.7061H4.414C4.14881 14.7061 3.89449 14.8115 3.707 14.9991L1.707 16.9991C1.077 17.6291 0 17.1831 0 16.2921V7.10605ZM6 4.70605C5.73478 4.70605 5.48043 4.81141 5.29289 4.99895C5.10536 5.18648 5 5.44084 5 5.70605C5 5.97127 5.10536 6.22563 5.29289 6.41316C5.48043 6.6007 5.73478 6.70605 6 6.70605H12C12.2652 6.70605 12.5196 6.6007 12.7071 6.41316C12.8946 6.22563 13 5.97127 13 5.70605C13 5.44084 12.8946 5.18648 12.7071 4.99895C12.5196 4.81141 12.2652 4.70605 12 4.70605H6ZM6 8.70605C5.73478 8.70605 5.48043 8.81141 5.29289 8.99895C5.10536 9.18648 5 9.44084 5 9.70605C5 9.97127 5.10536 10.2256 5.29289 10.4132C5.48043 10.6007 5.73478 10.7061 6 10.7061H9C9.26522 10.7061 9.51957 10.6007 9.70711 10.4132C9.89464 10.2256 10 9.97127 10 9.70605C10 9.44084 9.89464 9.18648 9.70711 8.99895C9.51957 8.81141 9.26522 8.70605 9 8.70605H6Z" fill="black"/>
</svg>
