<svg width="110" height="29" viewBox="0 0 110 29" fill="none" xmlns="http://www.w3.org/2000/svg">
<path d="M16.2965 15.7421L12.4465 11.9463C12.2498 11.7519 12.1364 11.4903 12.1299 11.2157C12.1233 10.9411 12.2241 10.6746 12.4114 10.4713C12.5986 10.2679 12.858 10.1434 13.1359 10.1234C13.4137 10.1034 13.6887 10.1895 13.9039 10.3639L13.9814 10.433L19.6819 16.0539C19.8727 16.2419 19.9857 16.4932 19.9987 16.7589C20.0118 17.0245 19.9241 17.2854 19.7526 17.4908L19.6819 17.5672L13.9814 23.1875C13.7842 23.3815 13.5189 23.4932 13.2404 23.4997C12.9619 23.5062 12.6916 23.4068 12.4853 23.2221C12.2791 23.0375 12.1528 22.7818 12.1325 22.5078C12.1122 22.2339 12.1996 21.9628 12.3765 21.7506L12.4465 21.6742L16.294 17.8821L11.4729 17.8821C9.40034 17.8821 7.46979 17.4272 5.79413 16.5565L5.54482 16.4232C3.83961 15.484 2.43232 14.0965 1.47969 12.4153C0.508529 10.7069 -6.14901e-07 8.71613 -4.27281e-07 6.57C-4.02472e-07 6.28622 0.114339 6.01406 0.317869 5.8134C0.521396 5.61273 0.797441 5.5 1.08527 5.5C1.37311 5.5 1.64915 5.61273 1.85268 5.8134C2.05621 6.01406 2.17055 6.28622 2.17055 6.57C2.17055 8.35538 2.58667 9.98607 3.37303 11.3685C4.13024 12.7062 5.24976 13.81 6.60653 14.5565C7.93057 15.2884 9.4791 15.695 11.1727 15.7378L11.4729 15.7421L16.2965 15.7421Z" fill="white"/>
<path d="M44.1733 7.45455H46.7869V17.6818C46.7822 18.6193 46.5833 19.4266 46.1903 20.1037C45.7973 20.776 45.2481 21.2945 44.5426 21.6591C43.8419 22.0189 43.0251 22.1989 42.0923 22.1989C41.2401 22.1989 40.473 22.0473 39.7912 21.7443C39.1141 21.4366 38.5767 20.982 38.179 20.3807C37.7813 19.7794 37.5824 19.0312 37.5824 18.1364H40.2031C40.2079 18.5294 40.2931 18.8679 40.4588 19.152C40.6293 19.4361 40.8636 19.6539 41.1619 19.8054C41.4602 19.9569 41.8035 20.0327 42.1918 20.0327C42.6132 20.0327 42.9706 19.9451 43.2642 19.7699C43.5578 19.59 43.7803 19.3248 43.9318 18.9744C44.0881 18.6241 44.1686 18.1932 44.1733 17.6818V7.45455ZM54.2905 22.2131C53.2251 22.2131 52.3018 21.9787 51.5206 21.5099C50.7393 21.0412 50.1333 20.3854 49.7024 19.5426C49.2763 18.6998 49.0632 17.715 49.0632 16.5881C49.0632 15.4612 49.2763 14.474 49.7024 13.6264C50.1333 12.7789 50.7393 12.1207 51.5206 11.652C52.3018 11.1832 53.2251 10.9489 54.2905 10.9489C55.3558 10.9489 56.2791 11.1832 57.0604 11.652C57.8416 12.1207 58.4453 12.7789 58.8714 13.6264C59.3023 14.474 59.5178 15.4612 59.5178 16.5881C59.5178 17.715 59.3023 18.6998 58.8714 19.5426C58.4453 20.3854 57.8416 21.0412 57.0604 21.5099C56.2791 21.9787 55.3558 22.2131 54.2905 22.2131ZM54.3047 20.1534C54.8823 20.1534 55.3653 19.9948 55.7536 19.6776C56.1418 19.3556 56.4306 18.9247 56.62 18.3849C56.8142 17.8452 56.9112 17.2438 56.9112 16.581C56.9112 15.9134 56.8142 15.3097 56.62 14.7699C56.4306 14.2254 56.1418 13.7921 55.7536 13.4702C55.3653 13.1482 54.8823 12.9872 54.3047 12.9872C53.7128 12.9872 53.2204 13.1482 52.8274 13.4702C52.4392 13.7921 52.148 14.2254 51.9538 14.7699C51.7644 15.3097 51.6697 15.9134 51.6697 16.581C51.6697 17.2438 51.7644 17.8452 51.9538 18.3849C52.148 18.9247 52.4392 19.3556 52.8274 19.6776C53.2204 19.9948 53.7128 20.1534 54.3047 20.1534ZM68.6531 17.4119V11.0909H71.2241V22H68.7312V20.0611H68.6175C68.3713 20.6719 67.9665 21.1714 67.4031 21.5597C66.8443 21.9479 66.1554 22.142 65.3363 22.142C64.6213 22.142 63.9892 21.9834 63.44 21.6662C62.8955 21.3442 62.4693 20.8778 62.1616 20.267C61.8538 19.6515 61.6999 18.9081 61.6999 18.0369V11.0909H64.271V17.6392C64.271 18.3305 64.4603 18.8797 64.8391 19.2869C65.2179 19.6941 65.7151 19.8977 66.3306 19.8977C66.7094 19.8977 67.0763 19.8054 67.4315 19.6207C67.7866 19.4361 68.0778 19.1615 68.305 18.7969C68.5371 18.4276 68.6531 17.9659 68.6531 17.4119ZM73.8679 22V11.0909H76.3608V12.9091H76.4744C76.6733 12.2794 77.0142 11.794 77.4972 11.4531C77.9848 11.1075 78.5412 10.9347 79.1662 10.9347C79.3082 10.9347 79.4669 10.9418 79.642 10.956C79.822 10.9654 79.9711 10.982 80.0895 11.0057V13.3707C79.9806 13.3329 79.8078 13.2997 79.571 13.2713C79.339 13.2382 79.1141 13.2216 78.8963 13.2216C78.4276 13.2216 78.0062 13.3234 77.6321 13.527C77.2628 13.7259 76.9716 14.0028 76.7585 14.358C76.5455 14.7131 76.4389 15.1226 76.4389 15.5866V22H73.8679ZM84.3686 15.608V22H81.7976V11.0909H84.255V12.9446H84.3828C84.6338 12.3338 85.0339 11.8485 85.5831 11.4886C86.1371 11.1288 86.8213 10.9489 87.6357 10.9489C88.3885 10.9489 89.0443 11.1098 89.603 11.4318C90.1664 11.7538 90.602 12.2202 90.9098 12.831C91.2223 13.4418 91.3762 14.1828 91.3714 15.054V22H88.8004V15.4517C88.8004 14.7225 88.611 14.152 88.2322 13.7401C87.8582 13.3281 87.3397 13.1222 86.6768 13.1222C86.227 13.1222 85.8269 13.2216 85.4766 13.4205C85.1309 13.6146 84.8587 13.8963 84.6598 14.2656C84.4657 14.6349 84.3686 15.0824 84.3686 15.608ZM97.1243 22.2202C96.433 22.2202 95.8104 22.0971 95.2564 21.8509C94.7071 21.5999 94.2715 21.2306 93.9496 20.7429C93.6323 20.2552 93.4737 19.6539 93.4737 18.9389C93.4737 18.3234 93.5874 17.8144 93.8146 17.4119C94.0419 17.0095 94.352 16.6875 94.745 16.446C95.138 16.2045 95.5807 16.0223 96.0732 15.8991C96.5703 15.7713 97.084 15.679 97.6143 15.6222C98.2536 15.5559 98.772 15.4967 99.1697 15.4446C99.5675 15.3878 99.8563 15.3026 100.036 15.1889C100.221 15.0705 100.313 14.8883 100.313 14.642V14.5994C100.313 14.0644 100.155 13.6501 99.8374 13.3565C99.5201 13.063 99.0632 12.9162 98.4666 12.9162C97.8369 12.9162 97.3374 13.0535 96.968 13.3281C96.6035 13.6027 96.3572 13.9271 96.2294 14.3011L93.8288 13.9602C94.0182 13.2973 94.3307 12.7434 94.7663 12.2983C95.2019 11.8485 95.7346 11.5123 96.3643 11.2898C96.9941 11.0625 97.6901 10.9489 98.4524 10.9489C98.978 10.9489 99.5012 11.0104 100.022 11.1335C100.543 11.2566 101.019 11.4602 101.45 11.7443C101.88 12.0237 102.226 12.4048 102.487 12.8878C102.752 13.3707 102.884 13.9744 102.884 14.6989V22H100.413V20.5014H100.327C100.171 20.8045 99.951 21.0885 99.6669 21.3537C99.3875 21.6141 99.0348 21.8248 98.6087 21.9858C98.1873 22.142 97.6925 22.2202 97.1243 22.2202ZM97.7919 20.331C98.308 20.331 98.7554 20.2292 99.1342 20.0256C99.513 19.8172 99.8042 19.5426 100.008 19.2017C100.216 18.8608 100.32 18.4891 100.32 18.0866V16.8011C100.24 16.8674 100.103 16.929 99.9084 16.9858C99.719 17.0426 99.5059 17.0923 99.2692 17.1349C99.0324 17.1776 98.7981 17.2154 98.5661 17.2486C98.334 17.2817 98.1328 17.3101 97.9624 17.3338C97.5788 17.3859 97.2356 17.4711 96.9325 17.5895C96.6295 17.7079 96.3904 17.8736 96.2152 18.0866C96.04 18.295 95.9524 18.5649 95.9524 18.8963C95.9524 19.3698 96.1252 19.7273 96.4709 19.9688C96.8165 20.2102 97.2569 20.331 97.7919 20.331ZM108.04 7.45455V22H105.469V7.45455H108.04Z" fill="white"/>
</svg>
