<svg width="128" height="24" viewBox="0 0 128 24" fill="none" xmlns="http://www.w3.org/2000/svg">
<path d="M16.2965 13.3085L12.4465 9.51278C12.2498 9.31835 12.1364 9.05677 12.1299 8.78219C12.1233 8.50762 12.2241 8.24107 12.4114 8.03774C12.5986 7.8344 12.858 7.70986 13.1359 7.68988C13.4137 7.66989 13.6887 7.75601 13.9039 7.9304L13.9814 7.99949L19.6819 13.6204C19.8727 13.8084 19.9857 14.0597 19.9987 14.3253C20.0118 14.591 19.9241 14.8519 19.7526 15.0572L19.6819 15.1337L13.9814 20.7539C13.7842 20.9479 13.5189 21.0597 13.2404 21.0662C12.9619 21.0726 12.6916 20.9733 12.4853 20.7886C12.2791 20.604 12.1528 20.3482 12.1325 20.0743C12.1122 19.8004 12.1996 19.5293 12.3765 19.3171L12.4465 19.2406L16.294 15.4486L11.4729 15.4486C9.40034 15.4486 7.46979 14.9936 5.79413 14.123L5.54482 13.9897C3.83961 13.0505 2.43232 11.663 1.47969 9.98175C0.508529 8.27341 -6.14901e-07 6.28259 -4.27281e-07 4.13647C-4.02472e-07 3.85269 0.114339 3.58053 0.317869 3.37986C0.521396 3.1792 0.797441 3.06647 1.08527 3.06647C1.37311 3.06647 1.64915 3.1792 1.85268 3.37986C2.05621 3.58053 2.17055 3.85269 2.17055 4.13647C2.17055 5.92185 2.58667 7.55253 3.37303 8.93498C4.13024 10.2727 5.24976 11.3764 6.60653 12.123C7.93057 12.8549 9.4791 13.2615 11.1727 13.3043L11.4729 13.3085L16.2965 13.3085Z" fill="white"/>
<path d="M41.4957 19.5665L37.3906 5.02101H40.2244L42.8452 15.7099H42.9801L45.7784 5.02101H48.3565L51.1619 15.717H51.2898L53.9105 5.02101H56.7443L52.6392 19.5665H50.0398L47.1278 9.3605H47.0142L44.0952 19.5665H41.4957ZM62.174 19.7795C61.0803 19.7795 60.1357 19.5523 59.3402 19.0977C58.5495 18.6384 57.9411 17.9898 57.5149 17.1517C57.0888 16.3089 56.8757 15.3169 56.8757 14.1758C56.8757 13.0537 57.0888 12.0688 57.5149 11.2213C57.9458 10.369 58.5471 9.70614 59.3189 9.23266C60.0907 8.75444 60.9974 8.51533 62.0391 8.51533C62.7114 8.51533 63.3459 8.62423 63.9425 8.84203C64.5438 9.0551 65.0741 9.38654 65.5334 9.83635C65.9974 10.2862 66.362 10.8591 66.6271 11.5551C66.8923 12.2464 67.0249 13.0703 67.0249 14.0267V14.815H58.0831V13.0821H64.5604C64.5556 12.5897 64.4491 12.1517 64.2408 11.7682C64.0324 11.3799 63.7412 11.0745 63.3672 10.852C62.9979 10.6294 62.567 10.5182 62.0746 10.5182C61.549 10.5182 61.0874 10.646 60.6896 10.9017C60.2919 11.1526 59.9818 11.4841 59.7592 11.896C59.5414 12.3032 59.4302 12.7507 59.4254 13.2383V14.7511C59.4254 15.3856 59.5414 15.9301 59.7734 16.3846C60.0054 16.8345 60.3298 17.1801 60.7464 17.4216C61.1631 17.6583 61.6508 17.7767 62.2095 17.7767C62.5836 17.7767 62.9221 17.7246 63.2251 17.6204C63.5282 17.5115 63.791 17.3529 64.0135 17.1446C64.236 16.9363 64.4041 16.6782 64.5178 16.3704L66.9183 16.6403C66.7668 17.2748 66.478 17.8288 66.0518 18.3023C65.6304 18.771 65.0907 19.1356 64.4325 19.396C63.7744 19.6517 63.0215 19.7795 62.174 19.7795ZM74.2745 19.5665V5.02101H76.9094V17.3577H83.3157V19.5665H74.2745ZM90.3185 19.7795C89.2248 19.7795 88.2802 19.5523 87.4847 19.0977C86.694 18.6384 86.0856 17.9898 85.6594 17.1517C85.2333 16.3089 85.0202 15.3169 85.0202 14.1758C85.0202 13.0537 85.2333 12.0688 85.6594 11.2213C86.0903 10.369 86.6916 9.70614 87.4634 9.23266C88.2352 8.75444 89.1419 8.51533 90.1836 8.51533C90.8559 8.51533 91.4904 8.62423 92.087 8.84203C92.6883 9.0551 93.2186 9.38654 93.6779 9.83635C94.1419 10.2862 94.5065 10.8591 94.7717 11.5551C95.0368 12.2464 95.1694 13.0703 95.1694 14.0267V14.815H86.2276V13.0821H92.7049C92.7002 12.5897 92.5936 12.1517 92.3853 11.7682C92.177 11.3799 91.8858 11.0745 91.5117 10.852C91.1424 10.6294 90.7115 10.5182 90.2191 10.5182C89.6935 10.5182 89.2319 10.646 88.8342 10.9017C88.4364 11.1526 88.1263 11.4841 87.9038 11.896C87.686 12.3032 87.5747 12.7507 87.57 13.2383V14.7511C87.57 15.3856 87.686 15.9301 87.918 16.3846C88.15 16.8345 88.4743 17.1801 88.891 17.4216C89.3076 17.6583 89.7953 17.7767 90.354 17.7767C90.7281 17.7767 91.0666 17.7246 91.3697 17.6204C91.6727 17.5115 91.9355 17.3529 92.158 17.1446C92.3806 16.9363 92.5487 16.6782 92.6623 16.3704L95.0629 16.6403C94.9113 17.2748 94.6225 17.8288 94.1964 18.3023C93.775 18.771 93.2352 19.1356 92.5771 19.396C91.9189 19.6517 91.1661 19.7795 90.3185 19.7795ZM100.484 19.7866C99.7924 19.7866 99.1697 19.6635 98.6158 19.4173C98.0665 19.1664 97.6309 18.7971 97.3089 18.3094C96.9917 17.8217 96.8331 17.2203 96.8331 16.5054C96.8331 15.8899 96.9467 15.3809 97.174 14.9784C97.4013 14.5759 97.7114 14.254 98.1044 14.0125C98.4974 13.771 98.9401 13.5887 99.4325 13.4656C99.9297 13.3378 100.443 13.2454 100.974 13.1886C101.613 13.1223 102.131 13.0632 102.529 13.0111C102.927 12.9543 103.216 12.869 103.396 12.7554C103.58 12.637 103.673 12.4547 103.673 12.2085V12.1659C103.673 11.6309 103.514 11.2166 103.197 10.923C102.879 10.6294 102.423 10.4827 101.826 10.4827C101.196 10.4827 100.697 10.62 100.327 10.8946C99.9628 11.1692 99.7166 11.4936 99.5888 11.8676L97.1882 11.5267C97.3776 10.8638 97.6901 10.3098 98.1257 9.86476C98.5613 9.41495 99.094 9.07878 99.7237 8.85624C100.353 8.62897 101.049 8.51533 101.812 8.51533C102.337 8.51533 102.861 8.57688 103.381 8.69999C103.902 8.8231 104.378 9.02669 104.809 9.31078C105.24 9.59014 105.585 9.9713 105.846 10.4543C106.111 10.9372 106.244 11.5409 106.244 12.2653V19.5665H103.772V18.0679H103.687C103.531 18.3709 103.31 18.655 103.026 18.9202C102.747 19.1806 102.394 19.3913 101.968 19.5523C101.547 19.7085 101.052 19.7866 100.484 19.7866ZM101.151 17.8974C101.667 17.8974 102.115 17.7956 102.494 17.592C102.872 17.3837 103.164 17.1091 103.367 16.7682C103.576 16.4273 103.68 16.0556 103.68 15.6531V14.3676C103.599 14.4339 103.462 14.4954 103.268 14.5523C103.078 14.6091 102.865 14.6588 102.629 14.7014C102.392 14.744 102.157 14.7819 101.925 14.815C101.693 14.8482 101.492 14.8766 101.322 14.9003C100.938 14.9524 100.595 15.0376 100.292 15.156C99.9889 15.2743 99.7498 15.44 99.5746 15.6531C99.3994 15.8614 99.3118 16.1313 99.3118 16.4628C99.3118 16.9363 99.4846 17.2937 99.8303 17.5352C100.176 17.7767 100.616 17.8974 101.151 17.8974ZM108.829 19.5665V8.65738H111.322V10.4756H111.435C111.634 9.84582 111.975 9.3605 112.458 9.01959C112.946 8.67395 113.502 8.50113 114.127 8.50113C114.269 8.50113 114.428 8.50823 114.603 8.52243C114.783 8.5319 114.932 8.54847 115.05 8.57215V10.9372C114.942 10.8993 114.769 10.8662 114.532 10.8378C114.3 10.8046 114.075 10.7881 113.857 10.7881C113.388 10.7881 112.967 10.8899 112.593 11.0935C112.224 11.2923 111.933 11.5693 111.719 11.9244C111.506 12.2795 111.4 12.6891 111.4 13.1531V19.5665H108.829ZM119.33 13.1744V19.5665H116.759V8.65738H119.216V10.5111H119.344C119.595 9.90027 119.995 9.41495 120.544 9.0551C121.098 8.69526 121.782 8.51533 122.597 8.51533C123.349 8.51533 124.005 8.67632 124.564 8.99828C125.127 9.32025 125.563 9.78664 125.871 10.3974C126.183 11.0082 126.337 11.7492 126.332 12.6204V19.5665H123.761V13.0182C123.761 12.289 123.572 11.7185 123.193 11.3065C122.819 10.8946 122.301 10.6886 121.638 10.6886C121.188 10.6886 120.788 10.7881 120.438 10.9869C120.092 11.1811 119.82 11.4628 119.621 11.8321C119.427 12.2014 119.33 12.6489 119.33 13.1744Z" fill="white"/>
</svg>
