<svg width="81" height="81" viewBox="0 0 81 81" fill="none" xmlns="http://www.w3.org/2000/svg">
<g id="Component 17">
<path id="Vector" d="M6.32812 0H74.6719C78.1669 0 81 2.8331 81 6.32812V74.6719C81 78.1669 78.1669 81 74.6719 81H6.32812C2.8331 81 0 78.1669 0 74.6719V6.32812C0 2.8331 2.8331 0 6.32812 0Z" fill="#3178C6"/>
<path id="Vector_2" d="M47.6248 63.4315V72.1707C49.0461 72.8991 50.7272 73.4452 52.6677 73.8094C54.6082 74.1735 56.6535 74.3555 58.8038 74.3555C60.899 74.3555 62.8899 74.1552 64.7756 73.7546C66.6614 73.354 68.3153 72.694 69.7363 71.7749C71.1576 70.8554 72.2827 69.6537 73.112 68.1697C73.941 66.6861 74.3555 64.8519 74.3555 62.6671C74.3555 61.0832 74.1185 59.6948 73.6448 58.5022C73.1763 57.3178 72.4798 56.2369 71.5948 55.3208C70.7022 54.3921 69.6315 53.5593 68.3836 52.8218C67.1354 52.0846 65.7277 51.3882 64.1605 50.7329C63.0126 50.2592 61.9834 49.7998 61.0721 49.3537C60.1612 48.9075 59.3866 48.4526 58.749 47.9881C58.1112 47.5239 57.6192 47.0322 57.273 46.5133C56.9269 45.9944 56.7538 45.4075 56.7538 44.7519C56.7538 44.151 56.9085 43.6096 57.2183 43.1271C57.528 42.6446 57.9656 42.2304 58.5304 41.8846C59.0952 41.5384 59.7875 41.2701 60.6076 41.0787C61.4274 40.8876 62.3387 40.792 63.3407 40.792C64.0697 40.792 64.8396 40.8468 65.6502 40.9559C66.4611 41.0651 67.2765 41.2334 68.0966 41.4612C68.9141 41.6879 69.7135 41.9755 70.488 42.3216C71.2391 42.6544 71.9574 43.0566 72.6336 43.5229V35.3574C71.3034 34.8477 69.8502 34.4699 68.2741 34.2241C66.6981 33.9782 64.8895 33.8555 62.8487 33.8555C60.7715 33.8555 58.8038 34.0785 56.9452 34.5247C55.0866 34.9705 53.4511 35.6669 52.039 36.6136C50.6269 37.5606 49.5109 38.7667 48.6908 40.2323C47.871 41.6979 47.4609 43.4502 47.4609 45.4894C47.4609 48.0928 48.2124 50.314 49.716 52.1529C51.2192 53.9916 53.5011 55.5483 56.5624 56.8228C57.6924 57.283 58.8133 57.7656 59.9242 58.2703C60.9629 58.7437 61.8603 59.235 62.6165 59.7448C63.3727 60.2545 63.9694 60.8098 64.4067 61.4107C64.844 62.0115 65.0626 62.6943 65.0626 63.4591C65.0662 64.0094 64.9248 64.5511 64.6526 65.0294C64.3795 65.5116 63.9647 65.9305 63.4091 66.2855C62.8535 66.6405 62.1609 66.918 61.3319 67.1183C60.5029 67.3186 59.5325 67.4189 58.4209 67.4189C56.526 67.4189 54.6494 67.0867 52.7908 66.4219C50.9319 65.7574 49.21 64.7608 47.6248 63.4315ZM33.0588 41.684H44.2969V34.4883H12.9727V41.684H24.156V73.7227H33.0588V41.684Z" fill="white"/>
</g>
</svg>
