<svg width="35" height="53" viewBox="0 0 35 53" fill="none" xmlns="http://www.w3.org/2000/svg">
<g id="Group 24">
<path id="Vector" d="M8.64129 53.0001C13.4113 53.0001 17.2826 49.0428 17.2826 44.1668V35.3335H8.64129C3.8713 35.3335 0 39.2908 0 44.1668C0 49.0428 3.8713 53.0001 8.64129 53.0001Z" fill="#0ACF83"/>
<path id="Vector_2" d="M0 26.4998C0 21.6238 3.8713 17.6665 8.64129 17.6665H17.2826V35.3331H8.64129C3.8713 35.3331 0 31.3758 0 26.4998Z" fill="#A259FF"/>
<path id="Vector_3" d="M0 8.83332C0 3.95733 3.8713 0 8.64129 0H17.2826V17.6666H8.64129C3.8713 17.6666 0 13.7093 0 8.83332Z" fill="#F24E1E"/>
<path id="Vector_4" d="M17.2826 0H25.9239C30.6939 0 34.5652 3.95733 34.5652 8.83332C34.5652 13.7093 30.6939 17.6666 25.9239 17.6666H17.2826V0Z" fill="#FF7262"/>
<path id="Vector_5" d="M34.5652 26.4998C34.5652 31.3758 30.6939 35.3331 25.9239 35.3331C21.1539 35.3331 17.2826 31.3758 17.2826 26.4998C17.2826 21.6238 21.1539 17.6665 25.9239 17.6665C30.6939 17.6665 34.5652 21.6238 34.5652 26.4998Z" fill="#1ABCFE"/>
</g>
</svg>
