<svg width="75" height="52" viewBox="0 0 75 52" fill="none" xmlns="http://www.w3.org/2000/svg">
<g id="Group 23">
<path id="Vector" d="M22.311 33.735L24.5903 41.1306C25.1024 42.8097 25.316 43.9819 25.2305 44.65C26.477 41.3113 27.348 37.6729 27.8436 33.735H30.5843C29.4058 40.146 27.8515 44.8048 25.9222 47.7111C24.4189 49.9507 22.7722 51.0704 20.9789 51.0704C20.5008 51.0704 19.9113 50.926 19.2119 50.6391V49.0937C19.5536 49.1438 19.9545 49.1706 20.4157 49.1706C21.2522 49.1706 21.9265 48.9388 22.4395 48.476C23.0537 47.9122 23.3612 47.2785 23.3612 46.5761C23.3612 46.0965 23.1214 45.1123 22.644 43.6234L19.4682 33.735H22.311ZM4.86665 29.1895L9.04145 41.9271H9.06723L13.2677 29.1895H16.6995C17.451 35.5064 17.8948 41.2863 18.031 46.5253H15.1377C15.0359 41.6279 14.7539 37.0227 14.2928 32.7089H14.2676L9.86162 46.5253H7.6582L3.2789 32.7089H3.25312C2.92822 36.8518 2.72373 41.4569 2.63847 46.5253H0C0.170508 40.3612 0.597216 34.5832 1.28013 29.1895H4.86665Z" fill="#00758F"/>
<path id="Vector_2" d="M51.6353 28.9318C56.1261 28.9318 58.3715 31.8008 58.3715 37.5361C58.3715 40.6527 57.6962 43.0069 56.347 44.5973C56.1038 44.8879 55.835 45.139 55.552 45.3716L58.73 46.9429L58.7269 46.9428L57.5985 48.8913L53.4599 46.4765C52.7739 46.6797 52.0191 46.7812 51.1966 46.7812C48.9915 46.7812 47.3445 46.1386 46.2555 44.8549C45.0602 43.4349 44.4628 41.1994 44.4628 38.1522C44.4628 35.0532 45.137 32.708 46.4867 31.1156C47.716 29.6589 49.4325 28.9318 51.6353 28.9318ZM37.8833 28.9568C39.4884 28.9568 40.9478 29.3863 42.2623 30.2422L41.5947 31.7301C40.4698 31.252 39.3608 31.0119 38.2671 31.0119C37.3797 31.0119 36.6959 31.2254 36.2193 31.6552C35.74 32.0812 35.4435 32.6293 35.4435 33.2976C35.4435 34.3245 36.175 35.2149 37.5258 35.9673C37.9683 36.2092 38.4093 36.4538 38.8487 36.7013L38.9495 36.758L39 36.7864L39.1009 36.8431L39.1513 36.8715L39.2521 36.9284C40.2746 37.5048 41.2367 38.055 41.2367 38.055C42.5873 39.0137 43.2605 40.0359 43.2605 41.7194C43.2605 43.1897 42.7217 44.3966 41.6477 45.341C40.5729 46.2811 39.129 46.7525 37.3208 46.7525C35.6297 46.7525 33.9907 46.2099 32.4031 45.1338L33.1458 43.6447C34.512 44.3295 35.7483 44.6715 36.8585 44.6715C37.8998 44.6715 38.7148 44.4391 39.3044 43.98C39.8928 43.5175 40.2454 42.8725 40.2454 42.0547C40.2454 41.0254 39.5294 40.1455 38.2159 39.4073C37.8047 39.1802 37.3948 38.9508 36.9861 38.7193L36.8855 38.6623C36.7006 38.5579 36.5145 38.4521 36.3321 38.3485L36.2332 38.2923C35.3462 37.7878 34.5794 37.347 34.5794 37.347C33.2663 36.3865 32.6079 35.356 32.6079 33.658C32.6079 32.2536 33.0989 31.1185 34.0794 30.255C35.0624 29.3895 36.3305 28.9568 37.8833 28.9568ZM63.6492 29.1889V44.3922H69.104V46.5247H60.8827V29.189L63.6492 29.1889ZM72.135 44.3988V44.7591H71.5353V46.5228H71.0768V44.7591H70.4538V44.3988H72.135ZM73.2425 44.3988L73.8183 45.8466L74.3472 44.3988H74.9972V46.5228H74.5651V44.9063L73.963 46.5228H73.6514L73.0484 44.9063H73.0252V46.5228H72.6164V44.3988H73.2425ZM51.3529 31.0637C48.7065 31.0637 47.3826 33.2478 47.3826 37.613C47.3826 40.1135 47.7334 41.9267 48.4337 43.0568C49.0824 44.1027 50.0982 44.6246 51.4815 44.6246C54.1279 44.6246 55.4516 42.4236 55.4516 38.0235C55.4516 35.558 55.1008 33.7603 54.4014 32.6296C53.752 31.5861 52.7366 31.0637 51.353 31.0637" fill="#F29111"/>
<path id="Vector_3" d="M44.4168 1.07418C45.2947 -1.08295 48.3642 0.550644 49.5554 1.30416C49.8474 1.49268 50.1822 1.89098 50.517 2.03819C51.0392 2.0587 51.561 2.09957 52.0841 2.1214C53.0652 2.35196 53.9842 2.54034 54.7574 2.98067C58.3504 5.09664 60.6893 7.25289 62.8419 10.8145C63.3018 11.5689 63.5317 12.3853 63.9074 13.2016C64.4289 14.4185 65.0148 15.6958 65.6201 16.8464C65.8911 17.3919 66.1007 17.9985 66.477 18.4592C66.6239 18.6699 67.0413 18.732 67.2907 18.8578C67.9804 19.2148 68.8159 19.4858 69.4646 19.9047C70.6758 20.66 71.847 21.56 72.9116 22.4814C73.3085 22.8371 73.5789 23.3405 73.9569 23.7167V23.9065C73.6213 24.0095 73.2869 24.115 72.9522 24.1995C72.2211 24.3873 71.5735 24.3448 70.8642 24.5328C70.4259 24.6599 69.8817 24.8276 69.4221 24.8703L69.4646 24.913C69.735 25.6857 71.1981 26.3142 71.8672 26.7763C72.6799 27.3628 73.433 28.0742 74.0391 28.8911C74.2484 29.0996 74.4578 29.2893 74.6661 29.4971C74.8117 29.7078 74.8527 29.9802 75.0001 30.168V30.2316C74.8369 30.174 74.7195 30.0642 74.6084 29.9493L74.542 29.88C74.4756 29.8112 74.4087 29.7435 74.3324 29.6877C73.8712 29.3727 73.4133 28.996 72.9522 28.7032C72.1594 28.2001 71.2399 27.9082 70.4259 27.4033C69.9657 27.1102 69.527 26.7763 69.0882 26.4409C68.6905 26.1469 68.2525 25.5823 68.0026 25.1634C67.8554 24.9319 67.8352 24.6599 67.6671 24.4925C67.6971 24.2128 67.9533 24.1298 68.2118 24.0615L68.2713 24.0458C68.3605 24.0227 68.4478 23.9996 68.524 23.9689C69.61 23.5078 70.9048 23.3405 72.5768 23.3824C72.5138 22.9626 71.4691 22.4395 71.1355 22.1881C70.4661 21.7056 69.7572 21.2021 69.0471 20.763C68.6708 20.533 68.0223 20.3651 67.6054 20.1772C67.0413 19.9466 65.7875 19.7162 65.4749 19.2771C64.9439 18.5848 64.5625 17.759 64.1922 16.925L64.0914 16.6973C64.0578 16.6214 64.0241 16.5456 63.9903 16.4698C63.5526 15.4654 63.0089 14.4182 62.5701 13.3897C62.3407 12.888 62.2354 12.4477 61.9842 11.9665C60.4597 9.01363 58.2034 6.54141 55.4678 4.80279C54.5689 4.23707 53.5665 3.71353 52.4599 3.35772C51.8328 3.16832 51.0802 3.27305 50.4121 3.12774H49.9723C49.597 3.02198 49.2837 2.62413 48.9909 2.41436C48.3442 1.9752 47.6964 1.68033 46.923 1.367C46.652 1.24132 45.8781 0.948642 45.608 1.17906C45.4407 1.2211 45.3559 1.28424 45.3147 1.45211C45.1483 1.7026 45.2947 2.07994 45.3982 2.31095C45.712 2.98038 46.1503 3.37823 46.5481 3.94395C46.902 4.44566 47.3416 5.01138 47.5926 5.55689C48.134 6.7295 48.3861 8.02867 48.8878 9.20113C49.0738 9.64205 49.3681 10.1438 49.6389 10.5415C49.8685 10.8571 50.2858 11.0854 50.4121 11.485C50.6637 11.9039 50.0353 13.2863 49.8899 13.7253C49.3457 15.4431 49.4511 17.831 50.0778 19.32L50.1112 19.3985L50.1446 19.478C50.3734 20.0234 50.6183 20.6106 51.2267 20.7631C51.2686 20.7215 51.2267 20.7434 51.3097 20.7215C51.457 19.569 51.4984 18.4591 51.8957 17.5573C52.1252 16.9935 52.5836 16.5949 52.8978 16.1347C53.1072 16.2601 53.1072 16.6381 53.2321 16.8883C53.5039 17.5373 53.7959 18.2487 54.131 18.8996C54.8189 20.2399 55.5929 21.5394 56.4699 22.7118C56.7636 23.1306 57.1804 23.5916 57.5563 23.9688C57.7237 24.1148 57.9112 24.1992 58.037 24.3872H58.078V24.4504C57.4514 24.2194 57.0541 23.5711 56.5543 23.1926C55.6133 22.4811 54.4864 21.4126 53.8378 20.3874C53.5665 19.7988 53.2732 19.2347 52.9808 18.6491V18.6067C52.8559 18.774 52.8978 18.9401 52.8352 19.1933C52.5639 20.2399 52.7728 21.4339 51.8328 21.8103C50.7673 22.2513 49.9725 21.0989 49.6389 20.5752C48.5731 18.837 48.2812 15.9047 49.0328 13.5376C49.1998 13.0137 49.2225 12.3853 49.514 11.9669C49.451 11.5887 49.1595 11.4853 48.9909 11.2535C48.6985 10.8574 48.4482 10.396 48.2192 9.95611C47.7795 9.09683 47.4666 8.07012 47.1327 7.14859C46.986 6.77227 46.9439 6.39449 46.7976 6.03824C46.548 5.49449 46.0879 4.94898 45.7329 4.46793C45.2523 3.77652 43.8525 2.43648 44.4168 1.07418ZM51.2681 5.17794C51.3239 5.23389 51.3913 5.28282 51.4611 5.33101L51.5451 5.38873C51.6572 5.46636 51.7657 5.5481 51.8322 5.65943C51.9377 5.80679 51.9573 5.95225 52.0836 6.09991C52.0836 6.60337 51.9377 6.93809 51.6431 7.14669C51.6431 7.14669 51.6231 7.16866 51.6024 7.18917C51.4354 6.85357 51.2891 6.51973 51.1209 6.18443C50.9138 5.89175 50.621 5.65958 50.4522 5.32515H50.4116V5.28311C50.6637 5.22086 50.9138 5.17794 51.2681 5.17794Z" fill="#00758F"/>
</g>
</svg>
