<svg width="43" height="27" viewBox="0 0 43 27" fill="none" xmlns="http://www.w3.org/2000/svg">
<path d="M21.5002 0.5C15.7668 0.5 12.1831 3.38898 10.7499 9.16694C12.9 6.27755 15.4085 5.19434 18.2752 5.91689C19.9105 6.32878 21.0797 7.5247 22.3738 8.84849C24.4816 11.0043 26.9213 13.5002 32.2501 13.5002C37.9835 13.5002 41.5668 10.6112 43 4.83326C40.8503 7.72265 38.3418 8.80587 35.4751 8.08332C33.8394 7.67142 32.6706 6.4755 31.3765 5.15171C29.2683 2.99594 26.829 0.5 21.5002 0.5ZM10.7499 13.5002C5.01686 13.5002 1.43316 16.3892 0 22.1671C2.15014 19.2778 4.65817 18.1945 7.52489 18.9171C9.16057 19.329 10.3298 20.5249 11.6235 21.8483C13.7317 24.0049 16.1714 26.5 21.5002 26.5C27.2332 26.5 30.8165 23.6114 32.2501 17.8335C30.1 20.7229 27.5915 21.8061 24.7252 21.0835C23.0895 20.6716 21.9203 19.4757 20.6262 18.1519C18.5184 15.9961 16.0787 13.5002 10.7499 13.5002Z" fill="url(#paint0_linear_489_107)"/>
<defs>
<linearGradient id="paint0_linear_489_107" x1="-119.454" y1="832.5" x2="3608.55" y2="2965.47" gradientUnits="userSpaceOnUse">
<stop stop-color="#2298BD"/>
<stop offset="1" stop-color="#0ED7B5"/>
</linearGradient>
</defs>
</svg>
