<svg width="286" height="29" viewBox="0 0 286 29" fill="none" xmlns="http://www.w3.org/2000/svg">
<path d="M16.2965 15.7421L12.4465 11.9463C12.2498 11.7519 12.1364 11.4903 12.1299 11.2157C12.1233 10.9411 12.2241 10.6746 12.4114 10.4713C12.5986 10.2679 12.858 10.1434 13.1359 10.1234C13.4137 10.1034 13.6887 10.1895 13.9039 10.3639L13.9814 10.433L19.6819 16.0539C19.8727 16.2419 19.9857 16.4932 19.9987 16.7589C20.0118 17.0245 19.9241 17.2854 19.7526 17.4908L19.6819 17.5672L13.9814 23.1875C13.7842 23.3815 13.5189 23.4932 13.2404 23.4997C12.9619 23.5062 12.6916 23.4068 12.4853 23.2221C12.2791 23.0375 12.1528 22.7818 12.1325 22.5078C12.1122 22.2339 12.1996 21.9628 12.3765 21.7506L12.4465 21.6742L16.294 17.8821L11.4729 17.8821C9.40034 17.8821 7.46979 17.4272 5.79413 16.5565L5.54482 16.4232C3.83961 15.484 2.43232 14.0965 1.47969 12.4153C0.508529 10.7069 -6.14901e-07 8.71613 -4.27281e-07 6.57C-4.02472e-07 6.28622 0.114339 6.01406 0.317869 5.8134C0.521396 5.61273 0.797441 5.5 1.08527 5.5C1.37311 5.5 1.64915 5.61273 1.85268 5.8134C2.05621 6.01406 2.17055 6.28622 2.17055 6.57C2.17055 8.35538 2.58667 9.98607 3.37303 11.3685C4.13024 12.7062 5.24976 13.81 6.60653 14.5565C7.93057 15.2884 9.4791 15.695 11.1727 15.7378L11.4729 15.7421L16.2965 15.7421Z" fill="white"/>
<path d="M38.4347 7.45455H41.6591L45.9773 17.9943H46.1477L50.4659 7.45455H53.6903V22H51.1619V12.0071H51.027L47.0071 21.9574H45.1179L41.098 11.9858H40.9631V22H38.4347V7.45455ZM61.2756 22.2131C60.1818 22.2131 59.2372 21.9858 58.4418 21.5312C57.651 21.072 57.0426 20.4233 56.6165 19.5852C56.1903 18.7424 55.9773 17.7505 55.9773 16.6094C55.9773 15.4872 56.1903 14.5024 56.6165 13.6548C57.0473 12.8026 57.6487 12.1397 58.4205 11.6662C59.1922 11.188 60.099 10.9489 61.1406 10.9489C61.813 10.9489 62.4474 11.0578 63.044 11.2756C63.6454 11.4886 64.1757 11.8201 64.6349 12.2699C65.099 12.7197 65.4635 13.2926 65.7287 13.9886C65.9938 14.6799 66.1264 15.5038 66.1264 16.4602V17.2486H57.1847V15.5156H63.6619C63.6572 15.0232 63.5507 14.5852 63.3423 14.2017C63.134 13.8134 62.8428 13.508 62.4688 13.2855C62.0994 13.063 61.6686 12.9517 61.1761 12.9517C60.6506 12.9517 60.1889 13.0795 59.7912 13.3352C59.3935 13.5862 59.0833 13.9176 58.8608 14.3295C58.643 14.7367 58.5317 15.1842 58.527 15.6719V17.1847C58.527 17.8191 58.643 18.3636 58.875 18.8182C59.107 19.268 59.4313 19.6136 59.848 19.8551C60.2647 20.0919 60.7524 20.2102 61.3111 20.2102C61.6851 20.2102 62.0237 20.1581 62.3267 20.054C62.6297 19.9451 62.8925 19.7865 63.1151 19.5781C63.3376 19.3698 63.5057 19.1117 63.6193 18.804L66.0199 19.0739C65.8684 19.7083 65.5795 20.2623 65.1534 20.7358C64.732 21.2045 64.1922 21.5691 63.5341 21.8295C62.8759 22.0852 62.1231 22.2131 61.2756 22.2131ZM68.3015 22V11.0909H70.7589V12.9446H70.8867C71.114 12.3196 71.4904 11.8319 72.016 11.4815C72.5415 11.1264 73.1689 10.9489 73.8981 10.9489C74.6367 10.9489 75.2594 11.1288 75.766 11.4886C76.2773 11.8437 76.6372 12.3291 76.8455 12.9446H76.9592C77.2006 12.3385 77.6078 11.8556 78.1808 11.4957C78.7584 11.1312 79.4426 10.9489 80.2333 10.9489C81.2371 10.9489 82.0562 11.2661 82.6907 11.9006C83.3252 12.535 83.6424 13.4607 83.6424 14.6776V22H81.0643V15.0753C81.0643 14.3982 80.8844 13.9034 80.5245 13.5909C80.1647 13.2737 79.7243 13.1151 79.2035 13.1151C78.5832 13.1151 78.0979 13.3092 77.7475 13.6974C77.4019 14.081 77.229 14.5805 77.229 15.196V22H74.7077V14.9688C74.7077 14.4053 74.5373 13.9555 74.1964 13.6193C73.8602 13.2831 73.4199 13.1151 72.8754 13.1151C72.506 13.1151 72.1699 13.2098 71.8668 13.3991C71.5638 13.5838 71.3223 13.8466 71.1424 14.1875C70.9625 14.5237 70.8725 14.9167 70.8725 15.3665V22H68.3015ZM86.3643 22V7.45455H88.9354V12.8949H89.0419C89.1745 12.6297 89.3615 12.348 89.603 12.0497C89.8445 11.7467 90.1712 11.4886 90.5831 11.2756C90.995 11.0578 91.5206 10.9489 92.1598 10.9489C93.0026 10.9489 93.7625 11.1643 94.4396 11.5952C95.1214 12.0213 95.6612 12.6534 96.0589 13.4915C96.4614 14.3248 96.6626 15.3475 96.6626 16.5597C96.6626 17.7576 96.4661 18.7756 96.0732 19.6136C95.6802 20.4517 95.1451 21.0909 94.468 21.5312C93.791 21.9716 93.0239 22.1918 92.1669 22.1918C91.5419 22.1918 91.0234 22.0876 90.6115 21.8793C90.1996 21.6709 89.8681 21.42 89.6172 21.1264C89.371 20.8281 89.1792 20.5464 89.0419 20.2812H88.8928V22H86.3643ZM88.8857 16.5455C88.8857 17.2509 88.9851 17.8688 89.1839 18.3991C89.3875 18.9295 89.6787 19.3437 90.0575 19.642C90.4411 19.9356 90.9051 20.0824 91.4496 20.0824C92.0178 20.0824 92.4936 19.9309 92.8771 19.6278C93.2607 19.3201 93.5495 18.901 93.7436 18.3707C93.9425 17.8357 94.0419 17.2273 94.0419 16.5455C94.0419 15.8684 93.9448 15.267 93.7507 14.7415C93.5566 14.2159 93.2678 13.804 92.8842 13.5057C92.5007 13.2074 92.0225 13.0582 91.4496 13.0582C90.9003 13.0582 90.4339 13.2027 90.0504 13.4915C89.6669 13.7803 89.3757 14.1851 89.1768 14.706C88.9827 15.2268 88.8857 15.84 88.8857 16.5455ZM103.678 22.2131C102.584 22.2131 101.64 21.9858 100.844 21.5312C100.053 21.072 99.445 20.4233 99.0188 19.5852C98.5927 18.7424 98.3796 17.7505 98.3796 16.6094C98.3796 15.4872 98.5927 14.5024 99.0188 13.6548C99.4497 12.8026 100.051 12.1397 100.823 11.6662C101.595 11.188 102.501 10.9489 103.543 10.9489C104.215 10.9489 104.85 11.0578 105.446 11.2756C106.048 11.4886 106.578 11.8201 107.037 12.2699C107.501 12.7197 107.866 13.2926 108.131 13.9886C108.396 14.6799 108.529 15.5038 108.529 16.4602V17.2486H99.587V15.5156H106.064C106.06 15.0232 105.953 14.5852 105.745 14.2017C105.536 13.8134 105.245 13.508 104.871 13.2855C104.502 13.063 104.071 12.9517 103.578 12.9517C103.053 12.9517 102.591 13.0795 102.194 13.3352C101.796 13.5862 101.486 13.9176 101.263 14.3295C101.045 14.7367 100.934 15.1842 100.929 15.6719V17.1847C100.929 17.8191 101.045 18.3636 101.277 18.8182C101.509 19.268 101.834 19.6136 102.25 19.8551C102.667 20.0919 103.155 20.2102 103.713 20.2102C104.087 20.2102 104.426 20.1581 104.729 20.054C105.032 19.9451 105.295 19.7865 105.517 19.5781C105.74 19.3698 105.908 19.1117 106.022 18.804L108.422 19.0739C108.271 19.7083 107.982 20.2623 107.556 20.7358C107.134 21.2045 106.595 21.5691 105.936 21.8295C105.278 22.0852 104.525 22.2131 103.678 22.2131ZM110.704 22V11.0909H113.197V12.9091H113.31C113.509 12.2794 113.85 11.794 114.333 11.4531C114.821 11.1075 115.377 10.9347 116.002 10.9347C116.144 10.9347 116.303 10.9418 116.478 10.956C116.658 10.9654 116.807 10.982 116.925 11.0057V13.3707C116.817 13.3329 116.644 13.2997 116.407 13.2713C116.175 13.2382 115.95 13.2216 115.732 13.2216C115.263 13.2216 114.842 13.3234 114.468 13.527C114.099 13.7259 113.808 14.0028 113.594 14.358C113.381 14.7131 113.275 15.1226 113.275 15.5866V22H110.704ZM128.353 22.2131C127.288 22.2131 126.364 21.9787 125.583 21.5099C124.802 21.0412 124.196 20.3854 123.765 19.5426C123.339 18.6998 123.126 17.715 123.126 16.5881C123.126 15.4612 123.339 14.474 123.765 13.6264C124.196 12.7789 124.802 12.1207 125.583 11.652C126.364 11.1832 127.288 10.9489 128.353 10.9489C129.418 10.9489 130.342 11.1832 131.123 11.652C131.904 12.1207 132.508 12.7789 132.934 13.6264C133.365 14.474 133.58 15.4612 133.58 16.5881C133.58 17.715 133.365 18.6998 132.934 19.5426C132.508 20.3854 131.904 21.0412 131.123 21.5099C130.342 21.9787 129.418 22.2131 128.353 22.2131ZM128.367 20.1534C128.945 20.1534 129.428 19.9948 129.816 19.6776C130.204 19.3556 130.493 18.9247 130.683 18.3849C130.877 17.8452 130.974 17.2438 130.974 16.581C130.974 15.9134 130.877 15.3097 130.683 14.7699C130.493 14.2254 130.204 13.7921 129.816 13.4702C129.428 13.1482 128.945 12.9872 128.367 12.9872C127.775 12.9872 127.283 13.1482 126.89 13.4702C126.502 13.7921 126.21 14.2254 126.016 14.7699C125.827 15.3097 125.732 15.9134 125.732 16.581C125.732 17.2438 125.827 17.8452 126.016 18.3849C126.21 18.9247 126.502 19.3556 126.89 19.6776C127.283 19.9948 127.775 20.1534 128.367 20.1534ZM141.288 11.0909V13.0795H134.839V11.0909H141.288ZM136.451 22V10.0611C136.451 9.32718 136.603 8.71638 136.906 8.22869C137.214 7.741 137.626 7.37642 138.142 7.13494C138.658 6.89347 139.231 6.77273 139.86 6.77273C140.306 6.77273 140.701 6.80824 141.047 6.87926C141.392 6.95028 141.648 7.0142 141.814 7.07102L141.302 9.05966C141.193 9.02651 141.056 8.99337 140.89 8.96023C140.725 8.92235 140.54 8.90341 140.336 8.90341C139.858 8.90341 139.52 9.01941 139.321 9.25142C139.127 9.47869 139.029 9.8054 139.029 10.2315V22H136.451ZM150.514 22L147.431 11.0909H150.052L151.97 18.7614H152.069L154.029 11.0909H156.622L158.582 18.7188H158.689L160.578 11.0909H163.206L160.116 22H157.439L155.393 14.6278H155.244L153.199 22H150.514ZM169.518 22.2131C168.424 22.2131 167.479 21.9858 166.684 21.5312C165.893 21.072 165.285 20.4233 164.859 19.5852C164.433 18.7424 164.219 17.7505 164.219 16.6094C164.219 15.4872 164.433 14.5024 164.859 13.6548C165.29 12.8026 165.891 12.1397 166.663 11.6662C167.434 11.188 168.341 10.9489 169.383 10.9489C170.055 10.9489 170.69 11.0578 171.286 11.2756C171.888 11.4886 172.418 11.8201 172.877 12.2699C173.341 12.7197 173.706 13.2926 173.971 13.9886C174.236 14.6799 174.369 15.5038 174.369 16.4602V17.2486H165.427V15.5156H171.904C171.899 15.0232 171.793 14.5852 171.585 14.2017C171.376 13.8134 171.085 13.508 170.711 13.2855C170.342 13.063 169.911 12.9517 169.418 12.9517C168.893 12.9517 168.431 13.0795 168.033 13.3352C167.636 13.5862 167.326 13.9176 167.103 14.3295C166.885 14.7367 166.774 15.1842 166.769 15.6719V17.1847C166.769 17.8191 166.885 18.3636 167.117 18.8182C167.349 19.268 167.674 19.6136 168.09 19.8551C168.507 20.0919 168.995 20.2102 169.553 20.2102C169.927 20.2102 170.266 20.1581 170.569 20.054C170.872 19.9451 171.135 19.7865 171.357 19.5781C171.58 19.3698 171.748 19.1117 171.862 18.804L174.262 19.0739C174.111 19.7083 173.822 20.2623 173.396 20.7358C172.974 21.2045 172.434 21.5691 171.776 21.8295C171.118 22.0852 170.365 22.2131 169.518 22.2131ZM179.683 22.2202C178.992 22.2202 178.369 22.0971 177.815 21.8509C177.266 21.5999 176.83 21.2306 176.508 20.7429C176.191 20.2552 176.032 19.6539 176.032 18.9389C176.032 18.3234 176.146 17.8144 176.373 17.4119C176.6 17.0095 176.911 16.6875 177.304 16.446C177.697 16.2045 178.139 16.0223 178.632 15.8991C179.129 15.7713 179.643 15.679 180.173 15.6222C180.812 15.5559 181.331 15.4967 181.728 15.4446C182.126 15.3878 182.415 15.3026 182.595 15.1889C182.779 15.0705 182.872 14.8883 182.872 14.642V14.5994C182.872 14.0644 182.713 13.6501 182.396 13.3565C182.079 13.063 181.622 12.9162 181.025 12.9162C180.395 12.9162 179.896 13.0535 179.527 13.3281C179.162 13.6027 178.916 13.9271 178.788 14.3011L176.387 13.9602C176.577 13.2973 176.889 12.7434 177.325 12.2983C177.761 11.8485 178.293 11.5123 178.923 11.2898C179.553 11.0625 180.249 10.9489 181.011 10.9489C181.537 10.9489 182.06 11.0104 182.581 11.1335C183.101 11.2566 183.577 11.4602 184.008 11.7443C184.439 12.0237 184.785 12.4048 185.045 12.8878C185.31 13.3707 185.443 13.9744 185.443 14.6989V22H182.971V20.5014H182.886C182.73 20.8045 182.51 21.0885 182.225 21.3537C181.946 21.6141 181.593 21.8248 181.167 21.9858C180.746 22.142 180.251 22.2202 179.683 22.2202ZM180.35 20.331C180.867 20.331 181.314 20.2292 181.693 20.0256C182.072 19.8172 182.363 19.5426 182.566 19.2017C182.775 18.8608 182.879 18.4891 182.879 18.0866V16.8011C182.798 16.8674 182.661 16.929 182.467 16.9858C182.278 17.0426 182.065 17.0923 181.828 17.1349C181.591 17.1776 181.357 17.2154 181.125 17.2486C180.893 17.2817 180.691 17.3101 180.521 17.3338C180.137 17.3859 179.794 17.4711 179.491 17.5895C179.188 17.7079 178.949 17.8736 178.774 18.0866C178.599 18.295 178.511 18.5649 178.511 18.8963C178.511 19.3698 178.684 19.7273 179.029 19.9688C179.375 20.2102 179.815 20.331 180.35 20.331ZM196.65 13.9744L194.306 14.2301C194.24 13.9934 194.124 13.7708 193.958 13.5625C193.797 13.3542 193.58 13.1861 193.305 13.0582C193.03 12.9304 192.694 12.8665 192.297 12.8665C191.761 12.8665 191.312 12.9825 190.947 13.2145C190.587 13.4465 190.41 13.7472 190.414 14.1165C190.41 14.4337 190.526 14.6918 190.762 14.8906C191.004 15.0895 191.402 15.2528 191.956 15.3807L193.816 15.7784C194.849 16.0009 195.616 16.3537 196.118 16.8366C196.624 17.3196 196.88 17.9517 196.885 18.733C196.88 19.4195 196.679 20.0256 196.281 20.5511C195.888 21.072 195.341 21.4792 194.64 21.7727C193.94 22.0663 193.135 22.2131 192.225 22.2131C190.89 22.2131 189.815 21.9337 189.001 21.375C188.187 20.8116 187.701 20.0279 187.545 19.0241L190.052 18.7827C190.166 19.2751 190.407 19.6468 190.777 19.8977C191.146 20.1487 191.627 20.2741 192.218 20.2741C192.829 20.2741 193.319 20.1487 193.689 19.8977C194.063 19.6468 194.25 19.3366 194.25 18.9673C194.25 18.6548 194.129 18.3968 193.887 18.1932C193.651 17.9896 193.281 17.8333 192.779 17.7244L190.919 17.3338C189.872 17.116 189.098 16.7491 188.596 16.233C188.094 15.7121 187.846 15.054 187.85 14.2585C187.846 13.5862 188.028 13.0038 188.397 12.5114C188.771 12.0142 189.29 11.6307 189.953 11.3608C190.62 11.0862 191.39 10.9489 192.261 10.9489C193.539 10.9489 194.546 11.2211 195.279 11.7656C196.018 12.3101 196.475 13.0464 196.65 13.9744ZM203.834 22.2131C202.74 22.2131 201.796 21.9858 201 21.5312C200.21 21.072 199.601 20.4233 199.175 19.5852C198.749 18.7424 198.536 17.7505 198.536 16.6094C198.536 15.4872 198.749 14.5024 199.175 13.6548C199.606 12.8026 200.207 12.1397 200.979 11.6662C201.751 11.188 202.658 10.9489 203.699 10.9489C204.372 10.9489 205.006 11.0578 205.603 11.2756C206.204 11.4886 206.734 11.8201 207.194 12.2699C207.658 12.7197 208.022 13.2926 208.287 13.9886C208.552 14.6799 208.685 15.5038 208.685 16.4602V17.2486H199.743V15.5156H206.221C206.216 15.0232 206.109 14.5852 205.901 14.2017C205.693 13.8134 205.401 13.508 205.027 13.2855C204.658 13.063 204.227 12.9517 203.735 12.9517C203.209 12.9517 202.748 13.0795 202.35 13.3352C201.952 13.5862 201.642 13.9176 201.419 14.3295C201.202 14.7367 201.09 15.1842 201.086 15.6719V17.1847C201.086 17.8191 201.202 18.3636 201.434 18.8182C201.666 19.268 201.99 19.6136 202.407 19.8551C202.823 20.0919 203.311 20.2102 203.87 20.2102C204.244 20.2102 204.582 20.1581 204.885 20.054C205.188 19.9451 205.451 19.7865 205.674 19.5781C205.896 19.3698 206.064 19.1117 206.178 18.804L208.578 19.0739C208.427 19.7083 208.138 20.2623 207.712 20.7358C207.291 21.2045 206.751 21.5691 206.093 21.8295C205.435 22.0852 204.682 22.2131 203.834 22.2131ZM213.431 7.45455V22H210.86V7.45455H213.431ZM221.036 26.0909V11.0909H223.564V12.8949H223.713C223.846 12.6297 224.033 12.348 224.275 12.0497C224.516 11.7467 224.843 11.4886 225.255 11.2756C225.667 11.0578 226.192 10.9489 226.831 10.9489C227.674 10.9489 228.434 11.1643 229.111 11.5952C229.793 12.0213 230.333 12.6534 230.73 13.4915C231.133 14.3248 231.334 15.3475 231.334 16.5597C231.334 17.7576 231.138 18.7756 230.745 19.6136C230.352 20.4517 229.817 21.0909 229.14 21.5312C228.462 21.9716 227.695 22.1918 226.838 22.1918C226.213 22.1918 225.695 22.0876 225.283 21.8793C224.871 21.6709 224.54 21.42 224.289 21.1264C224.042 20.8281 223.851 20.5464 223.713 20.2812H223.607V26.0909H221.036ZM223.557 16.5455C223.557 17.2509 223.657 17.8688 223.855 18.3991C224.059 18.9295 224.35 19.3437 224.729 19.642C225.113 19.9356 225.577 20.0824 226.121 20.0824C226.689 20.0824 227.165 19.9309 227.549 19.6278C227.932 19.3201 228.221 18.901 228.415 18.3707C228.614 17.8357 228.713 17.2273 228.713 16.5455C228.713 15.8684 228.616 15.267 228.422 14.7415C228.228 14.2159 227.939 13.804 227.556 13.5057C227.172 13.2074 226.694 13.0582 226.121 13.0582C225.572 13.0582 225.105 13.2027 224.722 13.4915C224.338 13.7803 224.047 14.1851 223.848 14.706C223.654 15.2268 223.557 15.84 223.557 16.5455ZM238.365 22.2131C237.272 22.2131 236.327 21.9858 235.532 21.5312C234.741 21.072 234.132 20.4233 233.706 19.5852C233.28 18.7424 233.067 17.7505 233.067 16.6094C233.067 15.4872 233.28 14.5024 233.706 13.6548C234.137 12.8026 234.739 12.1397 235.51 11.6662C236.282 11.188 237.189 10.9489 238.23 10.9489C238.903 10.9489 239.537 11.0578 240.134 11.2756C240.735 11.4886 241.266 11.8201 241.725 12.2699C242.189 12.7197 242.553 13.2926 242.819 13.9886C243.084 14.6799 243.216 15.5038 243.216 16.4602V17.2486H234.275V15.5156H240.752C240.747 15.0232 240.641 14.5852 240.432 14.2017C240.224 13.8134 239.933 13.508 239.559 13.2855C239.189 13.063 238.758 12.9517 238.266 12.9517C237.74 12.9517 237.279 13.0795 236.881 13.3352C236.483 13.5862 236.173 13.9176 235.951 14.3295C235.733 14.7367 235.622 15.1842 235.617 15.6719V17.1847C235.617 17.8191 235.733 18.3636 235.965 18.8182C236.197 19.268 236.521 19.6136 236.938 19.8551C237.355 20.0919 237.842 20.2102 238.401 20.2102C238.775 20.2102 239.114 20.1581 239.417 20.054C239.72 19.9451 239.982 19.7865 240.205 19.5781C240.427 19.3698 240.596 19.1117 240.709 18.804L243.11 19.0739C242.958 19.7083 242.669 20.2623 242.243 20.7358C241.822 21.2045 241.282 21.5691 240.624 21.8295C239.966 22.0852 239.213 22.2131 238.365 22.2131ZM250.15 22.2131C249.085 22.2131 248.161 21.9787 247.38 21.5099C246.599 21.0412 245.993 20.3854 245.562 19.5426C245.136 18.6998 244.923 17.715 244.923 16.5881C244.923 15.4612 245.136 14.474 245.562 13.6264C245.993 12.7789 246.599 12.1207 247.38 11.652C248.161 11.1832 249.085 10.9489 250.15 10.9489C251.215 10.9489 252.138 11.1832 252.92 11.652C253.701 12.1207 254.305 12.7789 254.731 13.6264C255.162 14.474 255.377 15.4612 255.377 16.5881C255.377 17.715 255.162 18.6998 254.731 19.5426C254.305 20.3854 253.701 21.0412 252.92 21.5099C252.138 21.9787 251.215 22.2131 250.15 22.2131ZM250.164 20.1534C250.742 20.1534 251.225 19.9948 251.613 19.6776C252.001 19.3556 252.29 18.9247 252.479 18.3849C252.674 17.8452 252.771 17.2438 252.771 16.581C252.771 15.9134 252.674 15.3097 252.479 14.7699C252.29 14.2254 252.001 13.7921 251.613 13.4702C251.225 13.1482 250.742 12.9872 250.164 12.9872C249.572 12.9872 249.08 13.1482 248.687 13.4702C248.299 13.7921 248.007 14.2254 247.813 14.7699C247.624 15.3097 247.529 15.9134 247.529 16.581C247.529 17.2438 247.624 17.8452 247.813 18.3849C248.007 18.9247 248.299 19.3556 248.687 19.6776C249.08 19.9948 249.572 20.1534 250.164 20.1534ZM257.559 26.0909V11.0909H260.088V12.8949H260.237C260.369 12.6297 260.556 12.348 260.798 12.0497C261.039 11.7467 261.366 11.4886 261.778 11.2756C262.19 11.0578 262.716 10.9489 263.355 10.9489C264.198 10.9489 264.958 11.1643 265.635 11.5952C266.316 12.0213 266.856 12.6534 267.254 13.4915C267.656 14.3248 267.858 15.3475 267.858 16.5597C267.858 17.7576 267.661 18.7756 267.268 19.6136C266.875 20.4517 266.34 21.0909 265.663 21.5312C264.986 21.9716 264.219 22.1918 263.362 22.1918C262.737 22.1918 262.218 22.0876 261.806 21.8793C261.395 21.6709 261.063 21.42 260.812 21.1264C260.566 20.8281 260.374 20.5464 260.237 20.2812H260.13V26.0909H257.559ZM260.081 16.5455C260.081 17.2509 260.18 17.8688 260.379 18.3991C260.583 18.9295 260.874 19.3437 261.252 19.642C261.636 19.9356 262.1 20.0824 262.645 20.0824C263.213 20.0824 263.689 19.9309 264.072 19.6278C264.456 19.3201 264.744 18.901 264.939 18.3707C265.137 17.8357 265.237 17.2273 265.237 16.5455C265.237 15.8684 265.14 15.267 264.946 14.7415C264.752 14.2159 264.463 13.804 264.079 13.5057C263.696 13.2074 263.217 13.0582 262.645 13.0582C262.095 13.0582 261.629 13.2027 261.245 13.4915C260.862 13.7803 260.571 14.1851 260.372 14.706C260.178 15.2268 260.081 15.84 260.081 16.5455ZM272.63 7.45455V22H270.059V7.45455H272.63ZM280.104 22.2131C279.01 22.2131 278.065 21.9858 277.27 21.5312C276.479 21.072 275.871 20.4233 275.445 19.5852C275.018 18.7424 274.805 17.7505 274.805 16.6094C274.805 15.4872 275.018 14.5024 275.445 13.6548C275.875 12.8026 276.477 12.1397 277.249 11.6662C278.02 11.188 278.927 10.9489 279.969 10.9489C280.641 10.9489 281.276 11.0578 281.872 11.2756C282.473 11.4886 283.004 11.8201 283.463 12.2699C283.927 12.7197 284.292 13.2926 284.557 13.9886C284.822 14.6799 284.955 15.5038 284.955 16.4602V17.2486H276.013V15.5156H282.49C282.485 15.0232 282.379 14.5852 282.17 14.2017C281.962 13.8134 281.671 13.508 281.297 13.2855C280.928 13.063 280.497 12.9517 280.004 12.9517C279.479 12.9517 279.017 13.0795 278.619 13.3352C278.222 13.5862 277.911 13.9176 277.689 14.3295C277.471 14.7367 277.36 15.1842 277.355 15.6719V17.1847C277.355 17.8191 277.471 18.3636 277.703 18.8182C277.935 19.268 278.259 19.6136 278.676 19.8551C279.093 20.0919 279.58 20.2102 280.139 20.2102C280.513 20.2102 280.852 20.1581 281.155 20.054C281.458 19.9451 281.721 19.7865 281.943 19.5781C282.166 19.3698 282.334 19.1117 282.447 18.804L284.848 19.0739C284.696 19.7083 284.408 20.2623 283.982 20.7358C283.56 21.2045 283.02 21.5691 282.362 21.8295C281.704 22.0852 280.951 22.2131 280.104 22.2131Z" fill="white"/>
</svg>
