<svg width="144" height="32" viewBox="0 0 144 32" fill="none" xmlns="http://www.w3.org/2000/svg">
<path id="Vector" d="M120.809 0.0133305V5.11612H110.859V31.9622H105.884V5.11643H95.7268V0.0133305H120.809ZM121.927 28.9188C122.278 28.9188 122.585 29.0577 122.844 29.3361C123.107 29.6142 123.238 29.9474 123.242 30.3356C123.241 30.5902 123.177 30.8398 123.056 31.0569C122.938 31.2712 122.772 31.4489 122.574 31.5731C122.379 31.7019 122.155 31.769 121.927 31.7672C121.563 31.7672 121.253 31.628 120.994 31.3499C120.734 31.0715 120.606 30.7345 120.609 30.3356C120.606 29.9474 120.734 29.6142 120.994 29.3361C121.253 29.0577 121.563 28.9188 121.927 28.9188ZM23.3201 31.9622L4.97531 6.82893V31.9492H0V0H6.21872L29.3954 31.7232L29.3957 5.11643L29.3937 0.0133305H54.4756V5.11612H34.3707V13.3252H50.5392V18.4283H34.3707V26.8594H54.4759V31.9622H23.3201ZM70.4208 18.3796L73.6813 22.8478L67.0002 32H60.471L70.4208 18.3796ZM67.0002 0.026661L75.418 11.5498L83.8094 0.0620023L90.3203 0.0511519L78.6777 16.0121L90.3392 31.9755H83.8094L60.4896 0.026661H67.0002ZM130.419 18.308H132.623V27.6704C132.62 28.5307 132.451 29.2663 132.121 29.8854C131.787 30.5039 131.325 30.9763 130.732 31.3096C130.142 31.6388 129.451 31.8075 128.666 31.8075C127.948 31.8075 127.304 31.6649 126.731 31.3865C126.158 31.1081 125.703 30.6908 125.369 30.1415C125.032 29.5925 124.867 28.9076 124.867 28.0877H127.075C127.078 28.4463 127.152 28.7573 127.294 29.0177C127.433 29.2747 127.637 29.4818 127.88 29.6142C128.133 29.7537 128.423 29.8231 128.75 29.8231C129.104 29.8231 129.407 29.7425 129.653 29.5776C129.899 29.4164 130.088 29.1749 130.22 28.8528C130.348 28.5341 130.415 28.1388 130.419 27.6701V18.308ZM141.694 21.9693C141.641 21.402 141.404 20.9586 140.993 20.644C140.578 20.3253 140.043 20.1681 139.385 20.1681C138.924 20.1681 138.526 20.245 138.195 20.395C137.865 20.5488 137.609 20.7537 137.433 21.0138C137.258 21.2736 137.171 21.5703 137.164 21.9035C137.164 22.1816 137.224 22.4234 137.342 22.6246C137.465 22.8356 137.63 23.0124 137.824 23.1411C138.036 23.2878 138.262 23.4069 138.499 23.4961C138.748 23.5913 138.998 23.6719 139.247 23.7379L140.396 24.0491C140.858 24.1663 141.307 24.3235 141.735 24.525C142.163 24.7228 142.55 24.9755 142.891 25.2793C143.231 25.5831 143.501 25.9492 143.7 26.3776C143.899 26.8061 144 27.3077 144 27.8862C144 28.6658 143.818 29.3506 143.45 29.9437C143.083 30.5333 142.554 30.9946 141.859 31.3279C141.168 31.6574 140.332 31.8258 139.348 31.8258C138.398 31.8258 137.568 31.6646 136.87 31.3425C136.169 31.0241 135.623 30.555 135.229 29.94C134.834 29.3249 134.622 28.5744 134.592 27.6921H136.776C136.806 28.1534 136.941 28.5378 137.171 28.849C137.403 29.1566 137.706 29.3835 138.077 29.5373C138.452 29.6876 138.869 29.7645 139.331 29.7645C139.813 29.7645 140.238 29.6839 140.605 29.5264C140.97 29.3689 141.256 29.1494 141.462 28.8636C141.671 28.5815 141.775 28.2486 141.779 27.8679C141.775 27.52 141.681 27.2308 141.499 27.0035C141.313 26.7766 141.057 26.5863 140.73 26.4325C140.4 26.2787 140.016 26.1395 139.577 26.019L138.182 25.6308C137.174 25.3487 136.375 24.9206 135.792 24.3455C135.205 23.7707 134.915 23.0094 134.915 22.0536C134.915 21.2702 135.111 20.5817 135.505 19.992C135.896 19.403 136.432 18.9451 137.11 18.6193C137.791 18.2897 138.559 18.1285 139.415 18.1285C140.285 18.1285 141.047 18.2897 141.704 18.6193C142.361 18.9451 142.878 19.399 143.251 19.9774C143.626 20.5562 143.821 21.2187 143.832 21.9693H141.694Z" fill="#484848"/>
</svg>
