<svg width="153" height="23" viewBox="0 0 153 23" fill="none" xmlns="http://www.w3.org/2000/svg">
<path d="M9.77806 10.3891H6.03589V17.4958C6.03589 19.3908 7.30342 19.3614 9.77806 19.2428V22.1148C4.76836 22.7069 2.77641 21.3451 2.77641 17.4958V10.3895H0V7.31016H2.77641V3.33302L6.03589 2.3859V7.31016H9.77806V10.3891ZM24.0434 7.31016H27.3029V22.1148H24.0434V19.983C22.8967 21.5525 21.1161 22.5 18.7623 22.5C14.6576 22.5 11.2472 19.0947 11.2472 14.7125C11.2472 10.3008 14.6576 6.92534 18.7619 6.92534C21.1161 6.92534 22.8967 7.87247 24.0434 9.41254V7.31016ZM19.275 19.4501C21.991 19.4501 24.0434 17.4663 24.0434 14.7125C24.0434 11.9586 21.991 9.97485 19.275 9.97485C16.5591 9.97485 14.5067 11.9586 14.5067 14.7125C14.5067 17.4663 16.5591 19.4501 19.275 19.4501ZM32.7352 5.08919C31.5881 5.08919 30.6528 4.14206 30.6528 3.0465C30.6539 2.50496 30.8736 1.9859 31.2639 1.60298C31.6542 1.22005 32.1833 1.00446 32.7352 1.00341C33.2872 1.00446 33.8162 1.22005 34.2065 1.60298C34.5968 1.9859 34.8166 2.50496 34.8176 3.0465C34.8176 4.14206 33.8819 5.08919 32.7352 5.08919ZM31.1055 22.1148V7.31016H34.3646V22.1148H31.1055ZM38.1371 22.1148V0.5H41.3966V22.1148H38.1371ZM62.5525 7.31016H65.9929L61.2545 22.1148H58.0555L54.9168 12.1365L51.7482 22.1148H48.5492L43.8108 7.31016H47.2512L50.1789 17.5256L53.3475 7.31016H56.4561L59.5948 17.5256L62.5525 7.31016ZM70.0368 5.08958C68.8901 5.08958 67.9544 4.14206 67.9544 3.0465C67.9555 2.50496 68.1752 1.9859 68.5655 1.60298C68.9558 1.22005 69.4848 1.00446 70.0368 1.00341C70.5888 1.00446 71.1178 1.22005 71.5081 1.60298C71.8984 1.9859 72.1181 2.50496 72.1192 3.0465C72.1192 4.14206 71.1835 5.08919 70.0368 5.08919M68.4071 22.1144V7.31016H71.6665V22.1148L68.4071 22.1144ZM83.3761 6.92454C86.7561 6.92454 89.1707 9.17496 89.1707 13.0244V22.1144H85.9112V13.3503C85.9112 11.1003 84.5832 9.91595 82.5312 9.91595C80.3884 9.91595 78.6982 11.1592 78.6982 14.1796V22.1148H75.4387V7.31016H78.6982V9.20521C79.6944 7.66513 81.3237 6.92454 83.3761 6.92454ZM104.622 1.38823H107.882V22.1148H104.622V19.983C103.476 21.5525 101.695 22.5 99.3414 22.5C95.2366 22.5 91.8262 19.0947 91.8262 14.7125C91.8262 10.3008 95.2366 6.92534 99.341 6.92534C101.695 6.92534 103.476 7.87247 104.622 9.41254V1.38823ZM99.854 19.4501C102.57 19.4501 104.622 17.4663 104.622 14.7125C104.622 11.9586 102.57 9.97485 99.854 9.97485C97.1381 9.97485 95.0857 11.9586 95.0857 14.7125C95.0857 17.4663 97.1381 19.4501 99.854 19.4501ZM118.807 22.5C114.25 22.5 110.839 19.0947 110.839 14.7125C110.839 10.3008 114.25 6.92534 118.807 6.92534C121.764 6.92534 124.329 8.43517 125.537 10.7449L122.73 12.3439C122.066 10.9522 120.587 10.0636 118.777 10.0636C116.121 10.0636 114.099 12.0478 114.099 14.7125C114.099 17.3772 116.121 19.3614 118.777 19.3614C120.587 19.3614 122.066 18.4433 122.791 17.0811L125.597 18.6506C124.329 20.9898 121.764 22.5 118.807 22.5ZM130.969 11.3963C130.969 14.0905 139.087 12.462 139.087 17.9399C139.087 20.9006 136.462 22.5 133.202 22.5C130.184 22.5 128.012 21.1673 127.046 19.0354L129.853 17.4365C130.335 18.7692 131.542 19.5683 133.202 19.5683C134.651 19.5683 135.768 19.0947 135.768 17.9104C135.768 15.2752 127.649 16.7556 127.649 11.4556C127.649 8.67195 130.094 6.92534 133.172 6.92534C135.647 6.92534 137.699 8.05035 138.755 10.0047L136.009 11.5145C135.466 10.3601 134.41 9.82721 133.172 9.82721C131.995 9.82721 130.969 10.3302 130.969 11.3963ZM144.882 11.3963C144.882 14.0905 153 12.462 153 17.9399C153 20.9006 150.374 22.5 147.115 22.5C144.097 22.5 141.924 21.1673 140.958 19.0354L143.765 17.4365C144.248 18.7692 145.455 19.5683 147.115 19.5683C148.563 19.5683 149.68 19.0947 149.68 17.9104C149.68 15.2752 141.562 16.7556 141.562 11.4556C141.562 8.67195 144.006 6.92534 147.085 6.92534C149.559 6.92534 151.612 8.05035 152.668 10.0047L149.922 11.5145C149.378 10.3601 148.322 9.82721 147.085 9.82721C145.908 9.82721 144.882 10.3302 144.882 11.3963Z" fill="#2D3748"/>
</svg>
